<?xml version="1.0" standalone="no"?>
<!DOCTYPE svg PUBLIC "-//W3C//DTD SVG 20010904//EN"
 "http://www.w3.org/TR/2001/REC-SVG-20010904/DTD/svg10.dtd">
<svg version="1.0" xmlns="http://www.w3.org/2000/svg"
 width="512.000000pt" height="512.000000pt" viewBox="0 0 512.000000 512.000000"
 preserveAspectRatio="xMidYMid meet">

<g transform="translate(0.000000,512.000000) scale(0.100000,-0.100000)"
fill="#000000" stroke="none">
<path d="M2510 5114 c-296 -34 -400 -64 -727 -204 -141 -61 -303 -126 -361
-146 -130 -43 -141 -49 -153 -81 -12 -32 20 -105 80 -181 l42 -53 -18 -27
c-29 -42 -52 -98 -70 -166 -12 -47 -17 -135 -21 -376 l-5 -315 -40 -30 c-134
-99 -152 -272 -40 -396 51 -56 105 -81 188 -88 l69 -6 13 -65 c29 -145 96
-300 181 -419 58 -82 161 -191 223 -237 l49 -36 0 -122 0 -121 -162 -80 c-205
-101 -258 -146 -258 -219 0 -14 -4 -27 -9 -30 -5 -4 -134 -45 -288 -92 -153
-47 -302 -97 -330 -111 -106 -49 -205 -150 -258 -261 -49 -102 -50 -122 -50
-685 l0 -529 24 -19 c32 -26 67 -24 96 6 l25 24 0 494 c0 292 4 516 10 548 23
119 107 231 212 283 29 14 182 66 341 115 l287 88 49 -66 49 -66 -77 -80 c-59
-62 -80 -91 -90 -128 -25 -89 -13 -130 108 -374 61 -123 111 -226 111 -228 0
-3 -45 -5 -100 -5 l-100 0 0 58 c0 48 -4 62 -23 80 -28 27 -67 28 -98 3 -18
-14 -23 -31 -27 -80 l-4 -61 -173 0 c-240 0 -219 28 -223 -291 -2 -140 0 -264
3 -277 3 -12 14 -31 25 -42 19 -19 35 -20 444 -20 515 0 476 -11 476 138 l0
97 55 -105 c31 -58 63 -111 72 -118 41 -30 113 6 113 59 0 18 -99 226 -260
549 -168 337 -260 531 -260 551 0 25 18 49 100 133 83 85 100 108 100 134 0
23 -22 60 -90 151 -49 67 -90 128 -90 136 0 21 299 170 305 153 2 -7 49 -167
104 -355 55 -188 105 -351 111 -363 28 -52 107 -45 131 12 10 25 9 39 -4 82
-10 29 -17 57 -17 63 0 6 28 2 68 -10 94 -28 307 -30 410 -3 40 10 75 16 78
13 6 -6 -268 -957 -276 -957 -3 0 -41 124 -84 275 -84 290 -96 315 -150 315
-31 0 -76 -40 -76 -67 0 -10 54 -202 120 -427 86 -294 125 -415 141 -432 29
-31 69 -31 98 0 16 17 89 253 287 932 145 500 267 915 269 922 6 17 305 -132
305 -153 0 -8 -40 -69 -90 -136 -68 -91 -90 -128 -90 -151 0 -26 17 -49 100
-134 82 -84 100 -108 100 -133 0 -20 -92 -214 -260 -551 -161 -323 -260 -531
-260 -549 0 -20 9 -36 26 -50 34 -26 68 -27 94 -1 11 11 137 255 281 543 283
566 286 574 258 674 -10 37 -31 66 -90 128 l-77 80 49 66 49 66 287 -88 c159
-49 312 -101 341 -115 105 -52 189 -164 212 -283 6 -32 10 -256 10 -548 l0
-494 25 -24 c29 -30 64 -32 96 -6 l24 19 0 529 c0 563 -1 583 -50 685 -53 111
-152 212 -258 261 -28 14 -177 64 -330 111 -154 47 -283 88 -288 92 -5 3 -9
16 -9 30 0 73 -53 118 -258 219 l-162 80 0 121 0 122 49 36 c62 46 165 155
223 237 85 119 152 274 181 419 l13 65 64 6 c80 7 126 26 178 73 127 115 113
323 -28 421 l-39 27 -3 466 c-4 450 -5 469 -26 533 -67 202 -248 354 -453 380
-46 6 -95 18 -109 26 -73 42 -183 88 -269 110 -80 21 -123 25 -266 28 -93 2
-186 1 -205 -1z m333 -160 c189 -19 373 -118 429 -229 30 -60 47 -75 85 -75
23 0 42 8 60 26 22 22 24 31 19 65 l-6 41 42 -24 c62 -33 142 -118 175 -185
l28 -58 3 -457 3 -458 -45 0 c-58 0 -92 16 -105 49 -5 14 -12 73 -15 131 -10
201 -81 381 -218 550 -55 67 -82 79 -142 62 -768 -220 -1286 -178 -1611 130
-47 45 -82 85 -78 89 4 4 55 25 113 47 58 22 184 74 280 117 297 131 448 171
695 184 136 8 177 7 288 -5z m421 -850 c25 -44 55 -106 66 -138 22 -65 40
-190 40 -279 0 -69 19 -120 63 -166 51 -53 99 -71 197 -71 107 0 152 -13 184
-50 35 -42 41 -81 20 -126 -21 -45 -67 -74 -116 -74 -30 0 -39 5 -50 27 -18
38 -53 54 -89 41 -40 -14 -46 -29 -58 -147 -12 -116 -29 -186 -66 -280 -118
-303 -414 -541 -735 -592 -74 -12 -225 -14 -296 -4 -232 32 -468 167 -613 350
-131 165 -191 315 -212 532 -5 59 -15 113 -21 121 -35 42 -98 32 -126 -19 -16
-29 -20 -30 -65 -26 -57 5 -92 34 -108 88 -10 31 -9 43 7 75 30 60 69 76 198
84 121 7 151 17 203 72 57 59 63 88 63 288 0 122 -4 186 -12 199 -10 16 -6 32
26 95 20 42 41 76 45 76 5 0 28 -7 52 -16 153 -54 470 -79 701 -55 136 14 375
61 513 100 l100 28 22 -26 c12 -14 42 -62 67 -107z m-1123 -1938 c78 -34 209
-65 322 -76 164 -16 379 16 516 76 30 14 55 23 57 22 1 -2 4 -44 5 -93 3 -86
-1 -103 -67 -329 -78 -269 -69 -256 -189 -296 -131 -43 -319 -43 -450 0 -119
40 -110 26 -190 301 -67 232 -70 248 -67 332 2 48 5 87 6 87 2 0 28 -11 57
-24z m-771 -1716 c22 -53 69 -65 114 -29 14 11 26 29 26 40 0 18 8 19 125 19
l125 0 0 -165 0 -165 -325 0 -325 0 0 165 0 165 124 0 124 0 12 -30z"/>
<path d="M1955 3737 c-36 -31 -39 -82 -6 -109 19 -15 41 -18 132 -18 125 0
149 12 149 73 0 58 -26 71 -144 75 -97 4 -105 2 -131 -21z"/>
<path d="M2940 3753 c-51 -19 -68 -85 -30 -123 18 -18 33 -20 129 -20 91 0
113 3 132 18 33 27 30 78 -5 109 -24 21 -36 23 -119 22 -51 0 -99 -3 -107 -6z"/>
<path d="M2050 3507 c-38 -19 -51 -54 -47 -121 3 -47 8 -63 26 -77 30 -25 76
-24 101 1 28 28 29 159 3 182 -27 24 -55 29 -83 15z"/>
<path d="M3020 3513 c-41 -15 -50 -35 -50 -110 0 -60 4 -77 20 -93 25 -25 71
-26 101 -1 21 17 24 28 24 90 0 57 -4 74 -20 90 -23 22 -53 32 -75 24z"/>
<path d="M2290 2947 c-61 -31 -58 -93 8 -143 71 -54 162 -77 285 -72 117 5
189 29 251 81 46 40 53 84 18 119 -30 30 -69 26 -131 -13 -53 -33 -57 -34
-161 -34 -102 0 -109 1 -158 32 -66 41 -82 45 -112 30z"/>
<path d="M3832 767 c-19 -20 -22 -35 -22 -100 l0 -77 -78 0 c-69 0 -81 -3
-100 -23 -31 -33 -29 -80 4 -106 22 -17 41 -21 100 -21 l74 0 0 -79 c0 -74 2
-81 26 -100 70 -55 124 -5 124 114 l0 65 69 0 c38 0 77 3 86 6 24 10 46 60 39
89 -10 41 -41 55 -120 55 l-72 0 -4 81 c-3 70 -6 83 -27 100 -32 26 -73 24
-99 -4z"/>
</g>
</svg>
