<svg xmlns="http://www.w3.org/2000/svg" version="1.1" xmlns:xlink="http://www.w3.org/1999/xlink" xmlns:svgjs="http://svgjs.com/svgjs" width="1536" height="713" preserveAspectRatio="none" viewBox="0 0 1536 713"><g clip-path="url(&quot;#SvgjsClipPath1099&quot;)" fill="none"><circle r="118.835" cx="25.91" cy="-30.52" stroke="#365aa3" stroke-opacity="0.25" stroke-width="2"></circle><circle r="118.835" cx="568.19" cy="455.93" stroke="#365aa3" stroke-opacity="0.25" stroke-width="2"></circle><circle r="118.835" cx="915.45" cy="909.47" stroke="#365aa3" stroke-opacity="0.25" stroke-width="2"></circle><circle r="104.91" cx="429.4" cy="179.84" stroke="#365aa3" stroke-opacity="0.25" stroke-width="2"></circle><circle r="96.975" cx="549.9" cy="101.68" stroke="#365aa3" stroke-opacity="0.25" stroke-width="2"></circle><circle r="77.14" cx="479" cy="299.14" stroke="#365aa3" stroke-opacity="0.25" stroke-width="2"></circle><circle r="81.205" cx="498.68" cy="195.94" stroke="#365aa3" stroke-opacity="0.25" stroke-width="2"></circle><circle r="93.595" cx="682.7" cy="342.51" stroke="#365aa3" stroke-opacity="0.25" stroke-width="2"></circle><circle r="227.25" cx="1483.86" cy="58.22" stroke="#365aa3" stroke-opacity="0.25" stroke-width="2"></circle><circle r="213.385" cx="1410.72" cy="108.84" stroke="#365aa3" stroke-opacity="0.25" stroke-width="2"></circle><circle r="223.97" cx="1180.49" cy="697.94" stroke="#365aa3" stroke-opacity="0.25" stroke-width="2"></circle><circle r="156.62" cx="1172.97" cy="120.98" stroke="#365aa3" stroke-opacity="0.25" stroke-width="2"></circle><circle r="184.655" cx="396.47" cy="550.85" stroke="#365aa3" stroke-opacity="0.25" stroke-width="2"></circle><circle r="63.87" cx="1048.98" cy="464.19" stroke="#365aa3" stroke-opacity="0.25" stroke-width="2"></circle><circle r="236.1" cx="443.54" cy="641.53" stroke="#365aa3" stroke-opacity="0.25" stroke-width="2"></circle><circle r="76.615" cx="7.13" cy="569.5" stroke="#365aa3" stroke-opacity="0.25" stroke-width="2"></circle><circle r="94.285" cx="698.94" cy="45.95" stroke="#365aa3" stroke-opacity="0.25" stroke-width="2"></circle><circle r="120.69" cx="1007.8" cy="358.52" stroke="#365aa3" stroke-opacity="0.25" stroke-width="2"></circle><circle r="101.61" cx="924.34" cy="341.22" stroke="#365aa3" stroke-opacity="0.25" stroke-width="2"></circle><circle r="99.705" cx="68.38" cy="604.29" stroke="#365aa3" stroke-opacity="0.25" stroke-width="2"></circle><circle r="176.5" cx="466.44" cy="174.32" stroke="#365aa3" stroke-opacity="0.25" stroke-width="2"></circle><circle r="175.695" cx="696.39" cy="495.57" stroke="#365aa3" stroke-opacity="0.25" stroke-width="2"></circle><circle r="205.315" cx="228.83" cy="354.69" stroke="#365aa3" stroke-opacity="0.25" stroke-width="2"></circle><circle r="223.5" cx="94.56" cy="598" stroke="#365aa3" stroke-opacity="0.25" stroke-width="2"></circle><circle r="220.04" cx="1208.21" cy="291.89" stroke="#365aa3" stroke-opacity="0.25" stroke-width="2"></circle><circle r="93.19" cx="623.15" cy="578.88" stroke="#365aa3" stroke-opacity="0.25" stroke-width="2"></circle><circle r="108.8" cx="1341.55" cy="400.13" stroke="#365aa3" stroke-opacity="0.25" stroke-width="2"></circle><circle r="88.865" cx="1374.16" cy="35.14" stroke="#365aa3" stroke-opacity="0.25" stroke-width="2"></circle></g><defs><clipPath id="SvgjsClipPath1099"><rect width="1536" height="713" x="0" y="0"></rect></clipPath></defs></svg>